<?xml version="1.0" encoding="UTF-8" standalone="no"?>
<svg xmlns:ffdec="https://www.free-decompiler.com/flash" xmlns:xlink="http://www.w3.org/1999/xlink" ffdec:objectType="shape" height="32.05px" width="5.6px" xmlns="http://www.w3.org/2000/svg">
  <g transform="matrix(1.0, 0.0, 0.0, 1.0, 39.2, 9.15)">
    <path d="M-34.95 22.3 L-34.95 22.25 -34.4 21.7 Q-34.25 21.35 -34.4 20.95 -39.35 7.1 -35.75 -7.2 -35.65 -7.6 -35.85 -7.95 L-36.45 -8.45 -36.6 -8.5 -36.55 -8.65 -36.4 -8.65 -35.7 -8.05 Q-35.45 -7.6 -35.55 -7.15 -39.15 7.1 -34.2 20.9 -34.05 21.35 -34.25 21.8 L-34.85 22.45 -34.95 22.3" fill="#ffffff" fill-opacity="0.07450981" fill-rule="evenodd" stroke="none"/>
    <path d="M-35.05 22.1 L-35.0 22.1 -34.55 21.65 Q-34.4 21.35 -34.55 21.0 -39.5 7.1 -35.9 -7.25 L-36.0 -7.9 -36.5 -8.3 -36.7 -8.35 -36.6 -8.5 -36.45 -8.45 -35.85 -7.95 Q-35.65 -7.6 -35.75 -7.2 -39.35 7.1 -34.4 20.95 -34.25 21.35 -34.4 21.7 L-34.95 22.25 -34.95 22.3 -35.05 22.1" fill="#ffffff" fill-opacity="0.09411765" fill-rule="evenodd" stroke="none"/>
    <path d="M-36.7 -8.35 L-36.5 -8.3 -36.0 -7.9 -35.9 -7.25 Q-39.5 7.1 -34.55 21.0 -34.4 21.35 -34.55 21.65 L-35.0 22.1 -35.05 22.1 -35.1 21.95 -34.7 21.6 -34.7 21.05 Q-39.7 7.15 -36.1 -7.3 L-36.15 -7.8 -36.55 -8.1 -36.75 -8.15 -36.7 -8.35" fill="#ffffff" fill-opacity="0.11372549" fill-rule="evenodd" stroke="none"/>
    <path d="M-34.85 22.45 L-34.25 21.8 Q-34.05 21.35 -34.2 20.9 -39.15 7.1 -35.55 -7.15 -35.45 -7.6 -35.7 -8.05 L-36.4 -8.65 -36.55 -8.65 -36.5 -8.85 -36.35 -8.8 Q-35.8 -8.6 -35.55 -8.15 -35.3 -7.65 -35.4 -7.1 -38.95 7.1 -34.05 20.85 -33.85 21.35 -34.1 21.85 L-34.8 22.6 -34.85 22.45" fill="#ffffff" fill-opacity="0.05490196" fill-rule="evenodd" stroke="none"/>
    <path d="M-34.7 22.75 L-34.8 22.6 -34.1 21.85 Q-33.85 21.35 -34.05 20.85 -38.95 7.1 -35.4 -7.1 -35.3 -7.65 -35.55 -8.15 -35.8 -8.6 -36.35 -8.8 L-36.5 -8.85 -36.4 -9.0 -36.25 -8.95 -35.4 -8.25 Q-35.1 -7.65 -35.25 -7.05 -38.8 7.1 -33.9 20.75 -33.65 21.35 -33.9 21.95 -34.15 22.5 -34.7 22.75" fill="#ffffff" fill-opacity="0.03529412" fill-rule="evenodd" stroke="none"/>
    <path d="M-36.4 -9.0 L-36.35 -9.15 -36.2 -9.1 Q-35.55 -8.9 -35.25 -8.3 -34.9 -7.7 -35.05 -7.05 -38.6 7.1 -33.7 20.7 -33.5 21.35 -33.75 22.0 -34.0 22.6 -34.65 22.9 L-34.7 22.75 Q-34.15 22.5 -33.9 21.95 -33.65 21.35 -33.9 20.75 -38.8 7.1 -35.25 -7.05 -35.1 -7.65 -35.4 -8.25 L-36.25 -8.95 -36.4 -9.0" fill="#ffffff" fill-opacity="0.015686275" fill-rule="evenodd" stroke="none"/>
    <path d="M-36.75 -8.15 L-36.55 -8.1 -36.15 -7.8 -36.1 -7.3 Q-39.7 7.15 -34.7 21.05 L-34.7 21.6 -35.1 21.95 -35.2 21.8 -35.15 21.8 -34.9 21.5 -34.85 21.15 Q-39.9 7.15 -36.25 -7.3 L-36.3 -7.7 -36.6 -7.95 -36.85 -8.0 -36.75 -8.15" fill="#ffffff" fill-opacity="0.13333334" fill-rule="evenodd" stroke="none"/>
    <path d="M-35.3 21.65 L-35.4 21.5 -35.3 21.45 -35.2 21.4 -35.2 21.25 Q-40.25 7.15 -36.6 -7.4 L-36.6 -7.55 -36.7 -7.65 -36.85 -7.6 -36.9 -7.55 -37.55 -5.85 -36.9 -7.75 -36.65 -7.8 -36.45 -7.65 -36.45 -7.35 Q-40.05 7.15 -35.05 21.2 L-35.05 21.45 -35.2 21.65 -35.3 21.65" fill="#ffffff" fill-opacity="0.17254902" fill-rule="evenodd" stroke="none"/>
    <path d="M-35.2 21.8 L-35.3 21.65 -35.2 21.65 -35.05 21.45 -35.05 21.2 Q-40.05 7.15 -36.45 -7.35 L-36.45 -7.65 -36.65 -7.8 -36.9 -7.75 -36.85 -8.0 -36.6 -7.95 -36.3 -7.7 -36.25 -7.3 Q-39.9 7.15 -34.85 21.15 L-34.9 21.5 -35.15 21.8 -35.2 21.8" fill="#ffffff" fill-opacity="0.15294118" fill-rule="evenodd" stroke="none"/>
    <path d="M-35.4 21.5 Q-39.2 14.05 -39.2 5.15 -39.2 -0.7 -37.55 -5.85 L-36.9 -7.55 -36.85 -7.6 -36.7 -7.65 -36.6 -7.55 -36.6 -7.4 Q-40.25 7.15 -35.2 21.25 L-35.2 21.4 -35.3 21.45 -35.4 21.5" fill="#ffffff" fill-opacity="0.19215687" fill-rule="evenodd" stroke="none"/>
  </g>
</svg>
